<svg width="28" height="30" viewBox="0 0 28 30" fill="none" xmlns="http://www.w3.org/2000/svg">
<path d="M11.36 12.5851C10.505 12.5851 9.82996 13.3351 9.82996 14.2501C9.82996 15.1651 10.52 15.9151 11.36 15.9151C12.215 15.9151 12.89 15.1651 12.89 14.2501C12.905 13.3351 12.215 12.5851 11.36 12.5851ZM16.835 12.5851C15.98 12.5851 15.305 13.3351 15.305 14.2501C15.305 15.1651 15.995 15.9151 16.835 15.9151C17.69 15.9151 18.365 15.1651 18.365 14.2501C18.365 13.3351 17.69 12.5851 16.835 12.5851Z" fill="#AAAAAA"/>
<path d="M24.125 0H4.02495C2.32995 0 0.949951 1.38 0.949951 3.09V23.37C0.949951 25.08 2.32995 26.46 4.02495 26.46H21.035L20.24 23.685L22.16 25.47L23.975 27.15L27.2 30V3.09C27.2 1.38 25.82 0 24.125 0ZM18.335 19.59C18.335 19.59 17.795 18.945 17.345 18.375C19.31 17.82 20.06 16.59 20.06 16.59C19.445 16.995 18.86 17.28 18.335 17.475C17.585 17.79 16.865 18 16.16 18.12C14.72 18.39 13.4 18.315 12.275 18.105C11.42 17.94 10.685 17.7 10.07 17.46C9.72495 17.325 9.34995 17.16 8.97495 16.95C8.92995 16.92 8.88495 16.905 8.83995 16.875C8.80995 16.86 8.79495 16.845 8.77995 16.83C8.50995 16.68 8.35995 16.575 8.35995 16.575C8.35995 16.575 9.07995 17.775 10.985 18.345C10.535 18.915 9.97995 19.59 9.97995 19.59C6.66495 19.485 5.40495 17.31 5.40495 17.31C5.40495 12.48 7.56495 8.565 7.56495 8.565C9.72495 6.945 11.78 6.99 11.78 6.99L11.93 7.17C9.22995 7.95 7.98495 9.135 7.98495 9.135C7.98495 9.135 8.31495 8.955 8.86995 8.7C10.475 7.995 11.75 7.8 12.275 7.755C12.365 7.74 12.44 7.725 12.53 7.725C13.445 7.605 14.48 7.575 15.56 7.695C16.985 7.86 18.515 8.28 20.075 9.135C20.075 9.135 18.89 8.01 16.34 7.23L16.55 6.99C16.55 6.99 18.605 6.945 20.765 8.565C20.765 8.565 22.925 12.48 22.925 17.31C22.925 17.31 21.65 19.485 18.335 19.59V19.59Z" fill="#AAAAAA"/>
</svg>
