<svg width="80" height="80" viewBox="0 0 80 80" fill="none" xmlns="http://www.w3.org/2000/svg">
<circle cx="40" cy="40" r="40" fill="black" fill-opacity="0.87"/>
<path d="M49.1875 24.4297L48.9766 38.8672C48.9766 42.1953 49.0234 46.2422 49.1172 51.0078C49.1172 52.0547 49.5469 52.6172 50.4062 52.6953C50.5938 52.7109 50.8828 52.7188 51.2734 52.7188C51.6641 52.7188 51.9688 52.7266 52.1875 52.7422C52.3594 53.0391 52.4453 53.3516 52.4453 53.6797C52.4453 54.0078 52.4219 54.2891 52.375 54.5234C49.6562 56.0547 47.3672 56.8203 45.5078 56.8203C44.2109 56.6172 43.1719 55.6094 42.3906 53.7969C41.2812 54.8594 40.1875 55.625 39.1094 56.0938C38.0312 56.5781 36.8594 56.8203 35.5938 56.8203C34.3281 56.8203 33.1719 56.6875 32.125 56.4219C31.0938 56.1719 30.0703 55.7344 29.0547 55.1094C28.0391 54.4844 27.1562 53.7031 26.4062 52.7656C24.7188 50.6562 23.875 47.8125 23.875 44.2344C23.875 42.1562 24.2656 40.2812 25.0469 38.6094C25.8281 36.9375 26.875 35.5781 28.1875 34.5312C30.875 32.3906 34.1016 31.3203 37.8672 31.3203C38.9453 31.3203 40.4375 31.4688 42.3438 31.7656L42.2031 25.5781C42.1562 24.7969 41.8594 24.1797 41.3125 23.7266C40.7812 23.2734 40.1016 23.0078 39.2734 22.9297C39.1641 22.1641 39.1094 21.7344 39.1094 21.6406C39.1094 21.5312 39.1172 21.4141 39.1328 21.2891C42.0859 20.1484 45.0312 19.5781 47.9688 19.5781C48.1094 19.5781 48.25 19.5781 48.3906 19.5781C48.6094 19.875 48.7969 20.4922 48.9531 21.4297C49.1094 22.3672 49.1875 23.3672 49.1875 24.4297ZM39.0391 34.7422C36.7266 34.7422 34.8281 35.4766 33.3438 36.9453C31.875 38.4141 31.1406 40.6406 31.1406 43.625C31.1406 45.6719 31.375 47.3438 31.8438 48.6406C32.3281 49.9219 32.8594 50.8594 33.4375 51.4531C34.5781 52.625 35.7734 53.2109 37.0234 53.2109C38.2734 53.2109 39.2266 53.0234 39.8828 52.6484C40.5391 52.2734 41.3594 51.5312 42.3438 50.4219C42.4531 48.3594 42.5078 45.8516 42.5078 42.8984C42.5078 39.9297 42.4844 37.3047 42.4375 35.0234C41.2812 34.8359 40.1484 34.7422 39.0391 34.7422Z" fill="#F7F9FA"/>
</svg>
